<?xml version="1.0" encoding="utf-8"?>
<svg viewBox="-500 0 1100 500" xmlns="http://www.w3.org/2000/svg" xmlns:xlink="http://www.w3.org/1999/xlink" xmlns:bx="https://boxy-svg.com">
  <defs>
    <path id="path-0" d="M -240.808 285.156 C -191.51 210.728 -118.811 176.197 -51.065 139.718 C 24.45 115.054 94.477 107.444 160.831 120.455 C 190.812 126.333 218.569 139.153 247.516 147.423 L 267.742 157.055 C 298.799 171.03 330.209 188.426 358.28 207.14" style="fill: none;"/>
    <path id="path-1" d="M -54.892 302.602 C -39.769 218.174 -13.834 160.745 17.823 103.187 C 66.969 31.617 103.313 2.6 148.93 -20.208 L 152.235 -22.412" style="fill: none;"/>
    <path id="path-2" d="M -95.635 259.87 C -21.279 230.362 50.249 236.256 112.457 232.982 C 197.112 232.982 270.574 244.605 347.437 250.518 L 359.127 252.856 C 372.802 254.223 386.309 255.194 400.044 255.194" style="fill: none;"/>
    <path id="path-3" d="M -300.925 536.137 C -151.513 460.006 2.615 473.957 139.379 467.74 C 257.365 467.74 346.111 476.304 437.189 487.689 L 441.464 489.114" style="fill: none;"/>
    <style bx:fonts="Montserrat">@import url(https://fonts.googleapis.com/css2?family=Montserrat%3Aital%2Cwght%400%2C100..900%3B1%2C100..900&amp;display=swap);</style>
  </defs>
  <path stroke-width="0" d="M 80.957 242.095 C 103.882 241.662 138.532 241.767 169.513 243.195 C 202.72 244.724 238.725 247.849 274.17 251.44 C 310.611 255.131 357.774 260.813 385.268 265.182 C 404.356 268.216 415.899 270.677 428.742 273.978 C 440.093 276.896 443.917 280.126 449.318 281.984 C 454.493 283.765 469.206 289.427 468.496 291.39 C 467.888 293.077 457.188 290.282 454.788 290.669 C 452.882 290.977 443.215 290.096 437.883 289.831 C 429.701 289.426 422.535 289.397 410.225 286.622 C 397.141 283.672 386.364 281.617 368.362 278.925 C 343.074 275.144 302.267 270.209 268.536 266.832 C 234.386 263.412 196.461 260.098 164.682 258.586 C 136.403 257.24 107.78 257.106 86.592 257.487 C 70.318 257.779 59.783 258.332 46.339 259.686 C 32.681 261.061 19.197 262.768 5.281 265.732 C -9.487 268.878 -24.24 272.883 -39.802 278.376 C -57.12 284.488 -83.04 298.435 -93.741 301.464 C -98.962 302.941 -101.347 303.011 -104.206 302.563 C -106.696 302.173 -108.951 301.044 -110.245 299.54 C -111.731 297.812 -112.649 294.479 -111.855 292.394 C -111.087 290.375 -109.731 289.44 -105.817 287.171 C -98.036 282.661 -75.708 273.173 -59.928 267.381 C -44.302 261.645 -28.427 256.378 -11.625 252.539 C 5.369 248.657 25.27 246.023 41.509 244.294 C 55.798 242.772 64.346 242.408 80.957 242.095 Z M 485.079 246.096 C 487.002 245.835 491.575 250.497 493.598 251.797 C 495.896 253.274 495.834 254.763 499.183 256.72 C 505.911 260.651 516.863 273.943 524.946 284.755 C 534.194 297.127 548.582 319.016 551.845 327.633 C 553.524 332.069 556.105 336.389 555.206 338.643 C 554.486 340.456 550.248 340.747 547.653 341.659 C 543.985 342.949 537.016 342 529.374 341.651 C 518.278 341.143 503.739 340.234 488.182 338.611 C 471.641 336.885 447.272 333.225 432.767 331.755 C 421.256 330.59 409.531 329.484 403.785 327.908 C 400.465 326.998 395.825 325.283 394.532 323.78 C 393.047 322.052 403.762 323.291 405.31 321.894 C 407.193 320.195 418.434 321.288 417.262 320.436 C 414.477 318.41 426.541 319.639 434.705 319.014 C 443.901 318.311 437.128 316.298 452.087 318.013 C 471.362 320.223 519.561 324.871 522.933 324.06 C 523.606 323.898 522.921 323.918 522.531 323.235 C 520.809 320.216 510.194 300.283 502.404 290.252 C 495.049 280.781 499.285 281.872 496.149 276.563 C 494.575 273.899 490.643 266.467 491.189 264.767 C 491.729 263.079 487.956 259.017 489.441 258.07 C 490.567 257.354 483.568 246.302 485.079 246.096 Z" style="stroke-width: 2px; fill: rgb(52, 137, 122); paint-order: stroke markers; stroke: rgb(52, 137, 122); transform-box: fill-box; transform-origin: 50% 50%;" transform="matrix(0.99863, 0.052336, -0.052336, 0.99863, -0.000001, -0.000003)"/>
  <text style="fill: rgb(52, 137, 122); font-family: Montserrat; font-size: 67px; font-weight: 700; letter-spacing: -6.7px; white-space: pre; transform-box: fill-box; transform-origin: 402.676px 78.1554px;" transform="matrix(0.956305, -0.292372, 0.292372, 0.956305, -190.681107, -254.038208)"><textPath xlink:href="#path-3">Recommendation Builder</textPath></text>
</svg>