<?xml version="1.0" encoding="utf-8"?>
<svg viewBox="0 0 300 500" xmlns="http://www.w3.org/2000/svg" xmlns:xlink="http://www.w3.org/1999/xlink" xmlns:bx="https://boxy-svg.com">
  <defs>
    <path id="path-0" d="M -240.808 285.156 C -191.51 210.728 -118.811 176.197 -51.065 139.718 C 24.45 115.054 94.477 107.444 160.831 120.455 C 190.812 126.333 218.569 139.153 247.516 147.423 L 267.742 157.055 C 298.799 171.03 330.209 188.426 358.28 207.14" style="fill: none;"/>
    <path id="path-1" d="M -54.892 302.602 C -39.769 218.174 -13.834 160.745 17.823 103.187 C 66.969 31.617 103.313 2.6 148.93 -20.208 L 152.235 -22.412" style="fill: none;"/>
    <path id="path-2" d="M -95.635 259.87 C -21.279 230.362 50.249 236.256 112.457 232.982 C 197.112 232.982 270.574 244.605 347.437 250.518 L 359.127 252.856 C 372.802 254.223 386.309 255.194 400.044 255.194" style="fill: none;"/>
    <style bx:fonts="Abyssinica SIL">@import url(https://fonts.googleapis.com/css2?family=Abyssinica+SIL%3Aital%2Cwght%400%2C400&amp;display=swap);</style>
    <path id="path-3" d="M -300.925 536.137 C -151.513 460.006 2.615 473.957 139.379 467.74 C 257.365 467.74 346.111 476.304 437.189 487.689 L 441.464 489.114" style="fill: none;"/>
  </defs>
  <path stroke-width="0" d="M 45.996 256.989 C 72.046 256.484 111.42 256.607 146.624 258.272 C 184.358 260.056 225.271 263.701 265.548 267.889 C 306.956 272.195 360.548 278.822 391.79 283.918 C 413.48 287.457 426.597 290.327 441.19 294.178 C 454.089 297.581 458.434 301.349 464.571 303.516 C 470.452 305.593 487.17 312.197 486.364 314.487 C 485.672 316.455 473.514 313.194 470.787 313.646 C 468.621 314.005 457.636 312.978 451.577 312.669 C 442.28 312.196 434.137 312.162 420.149 308.925 C 405.282 305.485 393.036 303.088 372.579 299.948 C 343.844 295.538 297.475 289.781 259.145 285.842 C 220.34 281.854 177.245 277.988 141.135 276.224 C 109.001 274.655 76.476 274.498 52.399 274.942 C 33.907 275.283 21.936 275.928 6.659 277.507 C -8.86 279.111 -24.183 281.102 -39.996 284.56 C -56.777 288.229 -73.541 292.9 -91.224 299.307 C -110.903 306.437 -140.356 322.704 -152.516 326.237 C -158.449 327.96 -161.159 328.042 -164.408 327.519 C -167.237 327.064 -169.799 325.747 -171.27 323.993 C -172.958 321.978 -174.001 318.09 -173.099 315.658 C -172.226 313.303 -170.686 312.212 -166.238 309.566 C -157.396 304.306 -132.025 293.239 -114.094 286.483 C -96.337 279.793 -78.299 273.649 -59.206 269.171 C -39.896 264.643 -17.282 261.571 1.171 259.554 C 17.408 257.779 27.121 257.354 45.996 256.989 Z M 505.207 261.656 C 507.392 261.352 512.588 266.79 514.887 268.306 C 517.499 270.029 517.428 271.765 521.234 274.048 C 528.879 278.633 541.324 294.137 550.508 306.748 C 561.017 321.178 577.367 346.71 581.074 356.761 C 582.982 361.935 585.915 366.974 584.894 369.603 C 584.075 371.717 579.26 372.057 576.311 373.12 C 572.143 374.625 564.224 373.518 555.54 373.111 C 542.932 372.519 526.411 371.458 508.733 369.565 C 489.937 367.552 462.246 363.283 445.764 361.569 C 432.684 360.21 419.36 358.919 412.831 357.081 C 409.059 356.02 403.786 354.02 402.317 352.266 C 400.629 350.251 412.805 351.696 414.564 350.067 C 416.704 348.085 429.477 349.36 428.145 348.366 C 424.981 346.003 438.689 347.436 447.966 346.708 C 458.416 345.888 450.719 343.539 467.718 345.54 C 489.62 348.118 544.39 353.539 548.221 352.593 C 548.986 352.404 548.207 352.428 547.764 351.631 C 545.808 348.11 533.746 324.86 524.894 313.16 C 516.536 302.113 521.349 303.385 517.786 297.193 C 515.997 294.085 511.53 285.417 512.15 283.434 C 512.764 281.465 508.476 276.727 510.164 275.623 C 511.443 274.787 503.49 261.896 505.207 261.656 Z" style="stroke-width: 2px; fill: rgb(52, 137, 122); paint-order: stroke markers; stroke: rgb(52, 137, 122);"/>
  <text style="fill: rgb(52, 137, 122); font-family: 'Abyssinica SIL'; font-size: 67px; font-weight: 700; white-space: pre; transform-box: fill-box; transform-origin: 402.676px 78.1554px;" transform="matrix(0.99863, -0.052336, 0.052336, 0.99863, -165.291901, -267.886902)"><textPath xlink:href="#path-3">Recommendation Builder</textPath></text>
</svg>